# xmcd CD database file
#
# Track frame offsets:
#	150
#	11291
#	20584
#	28832
#	41075
#	52721
#	60616
#	72274
#	83578
#	94138
#	103344
#	115585
#	127215
#	139914
#	150738
#	164268
#	175976
#	185225
#
# Disc length: 2632 seconds
#
# Revision: 1
# Processed by: cddbd v1.5.2PL0 Copyright (c) Steve Scherf et al.
# Submitted via: CDex 1.94
#
DISCID=f50a4612
DTITLE=Various Artist - Fire-Fury Records Story # 1
DYEAR=1900
DGENRE=R&B
TTITLE0=Johhny Chef - Can't Stop Moving
TTITLE1=Clarence Junior Lewis - Half A Heart
TTITLE2=Curtis Carrington - I'm Gonna Cacth You Cutting Out On Me
TTITLE3=Mary Ann Fisher - Wild As Youc An Be
TTITLE4=Riff Ruffin - Hucklebuck Scratch
TTITLE5=Bobby And Buddy - What's The Word
TTITLE6=The Gay Poppers - I've Got It
TTITLE7=Linda Martell And The Anglos - A Little Tear Was Falling From My Eyes
TTITLE8=Jimmy Ricks - I Wonder
TTITLE9=Littel Joe Cook - This I Know
TTITLE10=Lee Dorsey - You Are My Sunshine
TTITLE11=Willie Bradford - Wanna Be Loved
TTITLE12=Helen Bryant - That's A Promise
TTITLE13=Paul Paerryman - Look At My Baby
TTITLE14=June Bateman - Believe Me Darling
TTITLE15=Tarheel Slim and Little Ann - Can't Stay Away From You
TTITLE16=Upsetters - Steppin' Out
TTITLE17=Littel Junior Lewis - Can She Give Me Fever
EXTD=
EXTT0=
EXTT1=
EXTT2=
EXTT3=
EXTT4=
EXTT5=
EXTT6=
EXTT7=
EXTT8=
EXTT9=
EXTT10=
EXTT11=
EXTT12=
EXTT13=
EXTT14=
EXTT15=
EXTT16=
EXTT17=
PLAYORDER=
